<?xml version="1.0" ?><svg viewBox="0 0 32 32" xmlns="http://www.w3.org/2000/svg"><title/><g data-name="Layer 17" id="Layer_17"><path d="M28.41,5.06A8.81,8.81,0,0,0,16,5,8.8,8.8,0,0,0,3.59,17.52l.15.14.06.07L14.16,28.09a2.61,2.61,0,0,0,3.68,0l9.81-9.81.1-.09.46-.47,0,0,.16-.15A8.83,8.83,0,0,0,28.41,5.06ZM27,16.1l-.15.14-.15.16-.29.3-.09.08-9.9,9.89a.6.6,0,0,1-.84,0L5.32,16.41a2.28,2.28,0,0,0-.22-.22A.43.43,0,0,1,5,16.1a6.81,6.81,0,0,1,9.63-9.62l.09.1.1.12.47.47a1,1,0,0,0,1.42,0l.47-.47s.1-.1.13-.15l.07-.08h0A6.8,6.8,0,0,1,27,16.1Z"/></g></svg>